<svg width="72" height="72" fill="none" xmlns="http://www.w3.org/2000/svg"><defs><linearGradient id="a" x1="-35.849" y1="35.849" x2="35.849" y2="107.547" gradientUnits="userSpaceOnUse"><stop stop-color="#33D35E"/><stop offset="1" stop-color="#2AB6D9"/></linearGradient></defs><circle cx="36" cy="36" r="36" fill="url(#a)"/><circle cx="36" cy="36" r="36"/><path d="M49.316 19.332v3.727l4.11 4.117a8.72 8.72 0 0 1 2.553 6.142v21.994a.666.666 0 0 1-.667.667H43.32a.666.666 0 0 1-.666-.667V48.84l-.383-.612a9.63 9.63 0 0 1-.83-8.553l-15.641 6.026a3.332 3.332 0 0 1-4.307-1.912l-2.504-6.501A3.325 3.325 0 0 1 16 33.99V19.332A3.336 3.336 0 0 1 19.331 16h26.653a3.336 3.336 0 0 1 3.332 3.332Zm-31.983 0V33.99a2 2 0 0 0 1.998 2h19.975l-2.602-2.843a3.542 3.542 0 0 1-.909-2.372 3.555 3.555 0 0 1 6.039-2.544l6.104 6.105c.025-.114.04-.23.045-.346V23.582l-.006-.015h.006v-4.235a2 2 0 0 0-1.999-2H19.331a2 2 0 0 0-1.998 2Zm7.995 4.264c0 .957-.775 1.732-1.732 1.732h-3.198a1.732 1.732 0 0 1-1.733-1.732v-3.198c0-.957.776-1.733 1.733-1.733h3.198c.957 0 1.732.776 1.732 1.733v3.198Zm10.661-4.264h1.333v1.998h-1.333v-1.998Zm2.666 0h1.332v1.998h-1.332v-1.998Zm2.665 0h1.333v1.998H41.32v-1.998Zm2.665 0h1.333v1.998h-1.333v-1.998Zm-23.987 3.331v.933c0 .22.179.4.4.4h3.198a.4.4 0 0 0 .4-.4v-.933h-1.333v-1.332h1.333v-.933a.4.4 0 0 0-.4-.4h-3.198a.4.4 0 0 0-.4.4v.933h1.333v1.332h-1.333Zm23.69 25.32h10.958V33.318a7.38 7.38 0 0 0-2.162-5.198l-2.159-2.163 2.255 5.856a3.333 3.333 0 0 1-1.91 4.304l-.683.267 2.465 2.466-.942.942-10.618-10.615a2.222 2.222 0 0 0-3.209 3.073l5.46 5.957a.666.666 0 0 1 .088.78 8.303 8.303 0 0 0 .169 8.534l.289.462Zm7.65-15.69-2.022-5.25v6.947a3.334 3.334 0 0 1-.282 1.333l1.156-.446a2 2 0 0 0 1.148-2.584Zm-32.006-4.966h2.665v1.333h-2.665v-1.333Zm3.997 0h2.666v1.333h-2.666v-1.333Zm3.998 0h2.666v1.333h-2.666v-1.333Zm3.998 0h2.665v1.333h-2.665v-1.333Zm-11.993 3.998h2.665v1.333h-2.665v-1.333Zm11.993 0h2.665v1.333h-2.665v-1.333Zm-8.59 11.985a1.999 1.999 0 0 0 2.585 1.147l16.073-6.195-.866-.944H29.565v.004l-7.953 3.065 1.124 2.923Zm-1.604-4.164 4.738-1.824h-5.44l.702 1.824Zm22.854 10.17v5.33h10.661v-5.33H43.985Zm1.333 1.332h1.332v1.333h-1.332v-1.333Z" clip-rule="evenodd" fill="#FFF" fill-rule="evenodd"/></svg>