<svg width="20" height="20" fill="none" xmlns="http://www.w3.org/2000/svg"><path d="M10 0C7.284 0 6.944.012 5.877.06 2.246.227.227 2.242.061 5.877.01 6.944 0 7.284 0 10s.012 3.057.06 4.123c.167 3.632 2.182 5.65 5.817 5.817 1.067.048 1.407.06 4.123.06s3.057-.012 4.123-.06c3.629-.167 5.652-2.182 5.816-5.817.05-1.066.061-1.407.061-4.123s-.012-3.056-.06-4.123C19.777 2.25 17.76.227 14.124.061 13.057.01 12.716 0 10 0Zm4.042 1.86c-1.055-.048-1.372-.058-4.042-.058s-2.986.01-4.04.058c-2.713.123-3.976 1.41-4.1 4.1-.048 1.054-.058 1.37-.058 4.04s.01 2.987.058 4.04c.123 2.685 1.383 3.977 4.1 4.1 1.053.05 1.37.06 4.04.06 2.672 0 2.987-.01 4.042-.06 2.712-.123 3.975-1.41 4.099-4.098.047-1.054.057-1.37.057-4.041 0-2.67-.009-2.987-.057-4.041-.123-2.69-1.39-3.976-4.1-4.1Zm.095 2.802a1.2 1.2 0 1 1 2.401.002 1.2 1.2 0 0 1-2.4-.002ZM4.865 10a5.135 5.135 0 1 1 10.27 0 5.135 5.135 0 0 1-10.27 0ZM10 13.333a3.333 3.333 0 1 1 0-6.666 3.333 3.333 0 0 1 0 6.666Z" clip-rule="evenodd" fill="#FFF" fill-rule="evenodd"/></svg>