<svg width="138.759" height="20" fill="none" xmlns="http://www.w3.org/2000/svg"><defs><linearGradient id="a" x1="5.133" y1="-7.422" x2="-7.515" y2="12.282" gradientUnits="userSpaceOnUse"><stop stop-color="#33D35E"/><stop offset="1" stop-color="#2AB6D9"/></linearGradient><linearGradient id="b" x1="12.501" y1="-7.422" x2="-.147" y2="12.282" gradientUnits="userSpaceOnUse"><stop stop-color="#33D35E"/><stop offset="1" stop-color="#2AB6D9"/></linearGradient><linearGradient id="c" x1="19.869" y1="-7.422" x2="7.222" y2="12.282" gradientUnits="userSpaceOnUse"><stop stop-color="#33D35E"/><stop offset="1" stop-color="#2AB6D9"/></linearGradient></defs><path d="M43.706 11.631c-.8 2.595-3.1 4.216-5.952 4.216-3.547 0-6.175-2.593-6.175-6.066 0-3.485 2.607-6.048 6.175-6.048 3.664 0 6.201 2.614 6.201 5.949 0 .343-.03.685-.08 1.037h-8.442c.256 1.304 1.084 1.978 2.32 1.978.916 0 1.68-.4 2.056-1.066h3.897Zm-3.608-3.08h-4.596c.317-1.13 1.11-1.75 2.252-1.75 1.181 0 2 .613 2.344 1.75Zm14.376 6.107c-.93.754-2.11 1.188-3.43 1.188-3.476 0-5.961-2.536-5.961-6.069 0-3.52 2.485-6.027 5.96-6.027 1.34 0 2.536.448 3.475 1.222l.4-.879h2.919v11.369H54.81l-.336-.804Zm-2.906-2.279c-1.467 0-2.545-1.108-2.545-2.593 0-1.475 1.069-2.583 2.545-2.583 1.466 0 2.544 1.108 2.544 2.583 0 1.485-1.078 2.593-2.544 2.593Zm18.148-.463c0 2.376-2.005 3.93-5.025 3.93-3.099 0-4.982-1.636-5.018-4.1h3.77c0 .832.578 1.215 1.32 1.215.573 0 1.116-.293 1.116-.88 0-.656-.86-.843-1.953-1.024-1.762-.285-4.1-.817-4.1-3.574 0-2.28 1.943-3.75 4.855-3.75 2.895 0 4.772 1.54 4.816 3.843H65.83c0-.726-.488-1.063-1.197-1.063-.628 0-1.05.31-1.05.838 0 .646.87.797 1.95.99 1.796.319 4.183.692 4.183 3.575Zm8.952 3.052c-1.533 3.48-2.942 4.736-5.877 4.736h-1.34v-3.365h1.076c1.498 0 1.95-.39 2.48-1.804L70.31 4.104h4.255l2.412 6.263 2.249-6.263h4.206l-4.764 10.863Zm18.6-5.17c0 3.533-2.472 6.048-5.973 6.048-1.326 0-2.505-.445-3.429-1.216l-.37.844H84.6V0h3.871v4.534a5.332 5.332 0 0 1 2.825-.784c3.5 0 5.973 2.515 5.973 6.048Zm-6.496 2.58c-1.467 0-2.545-1.107-2.545-2.58 0-1.485 1.078-2.593 2.545-2.593 1.466 0 2.544 1.108 2.544 2.593 0 1.473-1.087 2.58-2.544 2.58Zm17.029 2.28c-.931.754-2.11 1.188-3.431 1.188-3.476 0-5.96-2.536-5.96-6.069 0-3.52 2.484-6.027 5.96-6.027 1.339 0 2.535.448 3.474 1.222l.401-.879h2.918v11.369h-3.027l-.335-.804Zm-2.907-2.279c-1.467 0-2.545-1.108-2.545-2.593 0-1.475 1.069-2.583 2.545-2.583 1.467 0 2.545 1.108 2.545 2.583 0 1.485-1.078 2.593-2.545 2.593Zm12.653-2.976v6.07h-3.916V4.106h2.747l.538 1.172c.846-.943 2.108-1.508 3.579-1.508 2.64 0 4.373 1.876 4.373 4.773v6.932h-3.915V9.083c0-1.323-.497-1.98-1.483-1.98-1.221 0-1.923.853-1.923 2.3Zm13.748 1.263v4.808h-3.916V0h3.916v8.559l2.708-4.454h4.397l-3.543 5.419 3.902 5.95h-4.617l-2.847-4.808Z" clip-rule="evenodd" fill="#2D314D" fill-rule="evenodd"/><path d="M10.803 0 0 19.704h5.986L16.79 0h-5.987Z" fill="url(#a)" fill-rule="evenodd"/><path d="M0 19.704h5.986L16.79 0h-5.987L0 19.704Z"/><g opacity=".5"><path d="M18.17 0 7.369 19.704h5.986L24.157 0h-5.986Z" fill="url(#b)" fill-rule="evenodd"/><path d="M7.368 19.704h5.986L24.157 0h-5.986L7.368 19.704Z"/></g><g opacity=".15"><path d="M25.54 0 14.736 19.704h5.986L31.525 0H25.54Z" fill="url(#c)" fill-rule="evenodd"/><path d="M14.737 19.704h5.986L31.525 0H25.54L14.737 19.704Z"/></g></svg>